<?xml version="1.0" encoding="UTF-8" standalone="no"?>
<!DOCTYPE svg PUBLIC "-//W3C//DTD SVG 1.1//EN" "http://www.w3.org/Graphics/SVG/1.1/DTD/svg11.dtd">
<svg class="code-icon" width="60" height="60" viewBox="0 0 512 512" version="1.1" xmlns="http://www.w3.org/2000/svg" xmlns:xlink="http://www.w3.org/1999/xlink" xml:space="preserve" xmlns:serif="http://www.serif.com/" style="fill-rule:evenodd;clip-rule:evenodd;stroke-linejoin:round;stroke-miterlimit:2;">
    <path d="M208,94.19C213.471,93.601 216.642,79.143 225.226,67.814C232.073,58.78 245.157,53.12 245.253,48.005C245.35,42.848 233.384,36.411 225.226,27.278C215.83,16.758 209.946,3.802 208,3.922C202.013,4.292 200.172,17.275 192.138,27.278C185.275,35.823 171.661,40.935 171.661,48.005C171.661,55.536 183.628,62.053 192.138,71.613C200.97,81.535 206.386,94.363 208,94.19Z" style="fill:rgb(185,163,227);fill-rule:nonzero;"/>
    <g transform="matrix(0.675197,0,0,0.675197,275.156,38.2112)">
        <path d="M208,94.19C213.471,93.601 216.642,79.143 225.226,67.814C232.073,58.78 245.157,53.12 245.253,48.005C245.35,42.848 233.384,36.411 225.226,27.278C215.83,16.758 209.946,3.802 208,3.922C202.013,4.292 200.172,17.275 192.138,27.278C185.275,35.823 171.661,40.935 171.661,48.005C171.661,55.536 183.628,62.053 192.138,71.613C200.97,81.535 206.386,94.363 208,94.19Z" style="fill:rgb(185,163,227);fill-rule:nonzero;"/>
    </g>
    <g transform="matrix(1.34078,0.392093,-0.28068,0.959801,-60.7021,-110.266)">
        <path d="M306.175,42.18C306.175,35.612 300.198,30.281 292.837,30.281L287.319,30.281C279.958,30.281 273.981,35.612 273.981,42.18L273.981,472.492C273.981,479.06 279.958,484.391 287.319,484.391L292.837,484.391C300.198,484.391 306.175,479.06 306.175,472.492L306.175,42.18Z" style="fill:rgb(50,60,94);"/>
    </g>
    <g transform="matrix(1,0,0,1,0.0029502,-2.55373)">
        <path d="M152.11,412.719C160.237,410.406 160,382.683 160,373.694C160,364.704 54.543,271.779 54.314,256.006C54.069,239.153 154.629,156.267 160,148.697C165.37,141.128 161.208,104.514 152.11,104.363C146.553,104.271 0.835,235.03 0,256.006C-0.757,275.016 144.412,414.91 152.11,412.719Z" style="fill:rgb(50,59,93);fill-rule:nonzero;"/>
    </g>
    <g transform="matrix(-1,1.22465e-16,-1.22465e-16,-1,511.997,514.554)">
        <path d="M152.11,412.719C160.237,410.406 160,382.683 160,373.694C160,364.704 54.543,271.779 54.314,256.006C54.069,239.153 154.629,156.267 160,148.697C165.37,141.128 161.208,104.514 152.11,104.363C146.553,104.271 0.835,235.03 0,256.006C-0.757,275.016 144.412,414.91 152.11,412.719Z" style="fill:rgb(50,59,92);fill-rule:nonzero;"/>
    </g>
</svg>
